<svg xmlns="http://www.w3.org/2000/svg" width="11.001" height="11" viewBox="0 0 11.001 11"><defs><style>.a{fill:#ff0109;}</style></defs><g transform="translate(0 -0.016)"><g transform="translate(0 0.016)"><path class="a" d="M6.712,5.516,10.825,1.4a.6.6,0,0,0,0-.851l-.36-.36a.6.6,0,0,0-.851,0L5.5,4.3,1.387.192a.6.6,0,0,0-.851,0L.176.552a.6.6,0,0,0,0,.851L4.289,5.516.176,9.629a.6.6,0,0,0,0,.851l.361.36a.6.6,0,0,0,.851,0L5.5,6.727,9.613,10.84a.6.6,0,0,0,.425.176h0a.6.6,0,0,0,.425-.176l.36-.36a.6.6,0,0,0,0-.851Z" transform="translate(0 -0.016)"/></g></g></svg>